<svg width="20" height="21" viewBox="0 0 20 21" fill="none" xmlns="http://www.w3.org/2000/svg">
<path fill-rule="evenodd" clip-rule="evenodd" d="M3.29166 16.2666C2.85832 15.8583 2.64999 15.2416 2.72499 14.575L3.03332 11.875C3.09166 11.3666 3.39999 10.6916 3.75832 10.325L10.6 3.08329C12.3083 1.27496 14.0917 1.22496 15.9 2.93329C17.7083 4.64163 17.7583 6.42496 16.05 8.23329L9.20832 15.475C8.85832 15.85 8.20832 16.2 7.69999 16.2833L5.01666 16.7416C4.87499 16.75 4.74999 16.7666 4.61666 16.7666C4.10832 16.7666 3.63332 16.5916 3.29166 16.2666ZM11.5083 3.92496L4.66666 11.175C4.49999 11.35 4.30832 11.7666 4.27499 12.0083L3.96666 14.7083C3.93332 14.9833 3.99999 15.2083 4.14999 15.35C4.29999 15.4916 4.52499 15.5416 4.79999 15.5L7.48332 15.0416C7.72499 15 8.12499 14.7833 8.29166 14.6083L15.1333 7.36663C16.1667 6.26663 16.5417 5.24996 15.0333 3.83329C14.3667 3.19163 13.7917 2.92496 13.275 2.92496C12.6333 2.92496 12.075 3.32496 11.5083 3.92496Z" fill="#6D31ED"/>
<path d="M14.3921 9.62504C11.7921 9.3667 9.70044 7.3917 9.30044 4.80837C9.25044 4.4667 9.48378 4.15004 9.82544 4.0917C10.1671 4.0417 10.4838 4.27504 10.5421 4.6167C10.8588 6.63337 12.4921 8.18337 14.5254 8.38337C14.8671 8.4167 15.1171 8.72504 15.0838 9.0667C15.0421 9.38337 14.7671 9.62504 14.4504 9.62504C14.4338 9.62504 14.4088 9.62504 14.3921 9.62504Z" fill="#6D31ED"/>
<path d="M2.5 19.4585C2.15833 19.4585 1.875 19.1752 1.875 18.8335C1.875 18.4918 2.15833 18.2085 2.5 18.2085H17.5C17.8417 18.2085 18.125 18.4918 18.125 18.8335C18.125 19.1752 17.8417 19.4585 17.5 19.4585H2.5Z" fill="#6D31ED"/>
</svg>
