<svg width="18" height="18" viewBox="0 0 18 18" fill="none" xmlns="http://www.w3.org/2000/svg">
<path fill-rule="evenodd" clip-rule="evenodd" d="M5.75244 8.99945C5.75244 7.20695 7.20744 5.75195 8.99994 5.75195C10.7924 5.75195 12.2474 7.20695 12.2474 8.99945C12.2474 10.792 10.7924 12.247 8.99994 12.247C7.20744 12.247 5.75244 10.792 5.75244 8.99945ZM6.87744 8.99945C6.87744 10.1695 7.82994 11.122 8.99994 11.122C10.1699 11.122 11.1224 10.1695 11.1224 8.99945C11.1224 7.82945 10.1699 6.87695 8.99994 6.87695C7.82994 6.87695 6.87744 7.82945 6.87744 8.99945Z" fill="#6D31ED"/>
<path fill-rule="evenodd" clip-rule="evenodd" d="M1.68756 11.2504C0.892559 10.0129 0.892559 7.99535 1.68756 6.75035C3.52506 3.88535 6.18756 2.23535 9.00006 2.23535C11.8126 2.23535 14.4751 3.88535 16.3051 6.75035C17.1001 7.98785 17.1001 10.0054 16.3051 11.2504C14.4751 14.1154 11.8126 15.7654 9.00006 15.7654C6.18006 15.7654 3.51756 14.1154 1.68756 11.2504ZM2.64006 7.35785C2.07756 8.23535 2.07756 9.76535 2.64006 10.6429C4.26006 13.1854 6.57756 14.6404 9.00006 14.6404C11.4226 14.6404 13.7401 13.1854 15.3601 10.6429C15.9226 9.76535 15.9226 8.23535 15.3601 7.35785C13.7401 4.81535 11.4226 3.36035 9.00006 3.36035C6.57756 3.36035 4.26006 4.81535 2.64006 7.35785Z" fill="#6D31ED"/>
</svg>
