<svg width="21" height="21" viewBox="0 0 21 21" fill="none" xmlns="http://www.w3.org/2000/svg">
<path d="M8.26588 17.2498C6.88255 15.8665 6.88255 13.6248 8.26588 12.2415L10.3326 10.1831C10.5742 9.94147 10.9742 9.94147 11.2159 10.1831C11.4576 10.4248 11.4576 10.8248 11.2159 11.0665L9.14922 13.1248C8.25755 14.0165 8.25755 15.4748 9.14922 16.3665C10.0409 17.2581 11.4992 17.2581 12.3909 16.3665L15.6326 13.1248C16.6159 12.1415 17.1576 10.8331 17.1576 9.44147C17.1576 8.0498 16.6159 6.74147 15.6326 5.75814C13.5992 3.7248 10.2992 3.7248 8.26588 5.75814L4.73255 9.29147C3.90755 10.1165 3.44922 11.2165 3.44922 12.3831C3.44922 13.5498 3.90755 14.6498 4.73255 15.4748C4.97422 15.7165 4.97422 16.1165 4.73255 16.3581C4.49089 16.5998 4.09089 16.5998 3.84922 16.3581C2.79089 15.2915 2.19922 13.8831 2.19922 12.3831C2.19922 10.8831 2.78255 9.46647 3.84922 8.40814L7.38255 4.8748C9.89922 2.35814 13.9992 2.35814 16.5159 4.8748C17.7326 6.09147 18.4076 7.71647 18.4076 9.44147C18.4076 11.1665 17.7326 12.7915 16.5159 14.0081L13.2742 17.2498C12.5826 17.9415 11.6826 18.2831 10.7742 18.2831C9.86589 18.2831 8.95755 17.9415 8.26588 17.2498Z" fill="#6D31ED"/>
</svg>
