<svg width="17" height="17" viewBox="0 0 17 17" fill="none" xmlns="http://www.w3.org/2000/svg">
<path d="M2.5 5.6665C2.22667 5.6665 2 5.43984 2 5.1665C2 4.89317 2.22667 4.6665 2.5 4.6665H14.5C14.7733 4.6665 15 4.89317 15 5.1665C15 5.43984 14.7733 5.6665 14.5 5.6665H2.5Z" fill="#565D6D"/>
<path d="M2.5 9C2.22667 9 2 8.77333 2 8.5C2 8.22667 2.22667 8 2.5 8H14.5C14.7733 8 15 8.22667 15 8.5C15 8.77333 14.7733 9 14.5 9H2.5Z" fill="#565D6D"/>
<path d="M2.5 12.3335C2.22667 12.3335 2 12.1068 2 11.8335C2 11.5602 2.22667 11.3335 2.5 11.3335H14.5C14.7733 11.3335 15 11.5602 15 11.8335C15 12.1068 14.7733 12.3335 14.5 12.3335H2.5Z" fill="#565D6D"/>
</svg>
