<svg width="21" height="20" viewBox="0 0 21 20" fill="none" xmlns="http://www.w3.org/2000/svg">
<path fill-rule="evenodd" clip-rule="evenodd" d="M1.37598 10.0003C1.37598 5.05866 5.39264 1.04199 10.3343 1.04199C15.276 1.04199 19.2926 5.05866 19.2926 10.0003C19.2926 14.942 15.276 18.9587 10.3343 18.9587C5.39264 18.9587 1.37598 14.942 1.37598 10.0003ZM2.62598 10.0003C2.62598 14.2503 6.08431 17.7087 10.3343 17.7087C14.5843 17.7087 18.0426 14.2503 18.0426 10.0003C18.0426 5.75033 14.5843 2.29199 10.3343 2.29199C6.08431 2.29199 2.62598 5.75033 2.62598 10.0003Z" fill="#352F36"/>
<path d="M9.50098 10.0003C9.50098 9.54199 9.87598 9.16699 10.3343 9.16699C10.7926 9.16699 11.1676 9.54199 11.1676 10.0003C11.1676 10.4587 10.801 10.8337 10.3343 10.8337C9.86764 10.8337 9.50098 10.4587 9.50098 10.0003Z" fill="#352F36"/>
<path d="M12.834 10.0003C12.834 9.54199 13.209 9.16699 13.6673 9.16699C14.1257 9.16699 14.5007 9.54199 14.5007 10.0003C14.5007 10.4587 14.134 10.8337 13.6673 10.8337C13.2007 10.8337 12.834 10.4587 12.834 10.0003Z" fill="#352F36"/>
<path d="M6.16699 10.0003C6.16699 9.54199 6.54199 9.16699 7.00033 9.16699C7.45866 9.16699 7.83366 9.54199 7.83366 10.0003C7.83366 10.4587 7.46699 10.8337 7.00033 10.8337C6.53366 10.8337 6.16699 10.4587 6.16699 10.0003Z" fill="#352F36"/>
</svg>
