<svg width="21" height="21" viewBox="0 0 21 21" fill="none" xmlns="http://www.w3.org/2000/svg">
<path d="M17.9331 6.10839C13.5248 5.66673 9.12481 5.50006 4.76647 5.94173L3.06647 6.10839C2.71647 6.14173 2.40814 5.89173 2.37481 5.54173C2.34147 5.19173 2.59147 4.89173 2.93314 4.85839L4.63314 4.69173C9.06647 4.24173 13.5581 4.41673 18.0581 4.85839C18.3998 4.89173 18.6498 5.20006 18.6165 5.54173C18.5915 5.86673 18.3165 6.10839 17.9998 6.10839C17.9831 6.10839 17.9581 6.10839 17.9331 6.10839Z" fill="#ED1C24"/>
<path d="M7.47554 5.25817C7.1422 5.19984 6.90887 4.87484 6.9672 4.5415L7.15054 3.44984C7.28387 2.64984 7.4672 1.5415 9.40887 1.5415H11.5922C13.5422 1.5415 13.7255 2.6915 13.8505 3.45817L14.0339 4.5415C14.0922 4.88317 13.8589 5.20817 13.5255 5.25817C13.1839 5.3165 12.8589 5.08317 12.8089 4.74984L12.6255 3.6665C12.5089 2.9415 12.4839 2.79984 11.6005 2.79984H9.4172C8.53387 2.79984 8.5172 2.9165 8.3922 3.65817L8.20054 4.7415C8.15054 5.04984 7.88387 5.2665 7.58387 5.2665C7.55054 5.2665 7.5172 5.2665 7.47554 5.25817Z" fill="#ED1C24"/>
<path d="M7.82524 19.4586C4.91691 19.4586 4.80024 17.8503 4.70857 16.5503L4.16691 8.15864C4.14191 7.81697 4.40857 7.51697 4.75024 7.49197C5.10024 7.47531 5.39191 7.73364 5.41691 8.07531L5.95857 16.467C6.05024 17.7336 6.08357 18.2086 7.82524 18.2086H13.1752C14.9252 18.2086 14.9586 17.7336 15.0419 16.467L15.5836 8.07531C15.6086 7.73364 15.9086 7.47531 16.2502 7.49197C16.5919 7.51697 16.8586 7.80864 16.8336 8.15864L16.2919 16.5503C16.2002 17.8503 16.0836 19.4586 13.1752 19.4586H7.82524Z" fill="#ED1C24"/>
<path d="M9.1084 14.875C8.76673 14.875 8.4834 14.5917 8.4834 14.25C8.4834 13.9083 8.76673 13.625 9.1084 13.625H11.8834C12.2251 13.625 12.5084 13.9083 12.5084 14.25C12.5084 14.5917 12.2251 14.875 11.8834 14.875H9.1084Z" fill="#ED1C24"/>
<path d="M8.41675 11.5415C8.07508 11.5415 7.79175 11.2582 7.79175 10.9165C7.79175 10.5748 8.07508 10.2915 8.41675 10.2915H12.5834C12.9251 10.2915 13.2084 10.5748 13.2084 10.9165C13.2084 11.2582 12.9251 11.5415 12.5834 11.5415H8.41675Z" fill="#ED1C24"/>
</svg>
