<svg width="21" height="20" viewBox="0 0 21 20" fill="none" xmlns="http://www.w3.org/2000/svg">
<path d="M17.9334 5.60839C13.5251 5.16673 9.12505 5.00006 4.76672 5.44173L3.06672 5.60839C2.71672 5.64173 2.40839 5.39173 2.37505 5.04173C2.34172 4.69173 2.59172 4.39173 2.93339 4.35839L4.63339 4.19173C9.06672 3.74173 13.5584 3.91673 18.0584 4.35839C18.4001 4.39173 18.6501 4.70006 18.6167 5.04173C18.5917 5.36673 18.3167 5.60839 18.0001 5.60839C17.9834 5.60839 17.9584 5.60839 17.9334 5.60839Z" fill="#565D6D"/>
<path d="M7.47529 4.75866C7.14196 4.70033 6.90863 4.37533 6.96696 4.04199L7.15029 2.95033C7.28363 2.15033 7.46696 1.04199 9.40863 1.04199H11.592C13.542 1.04199 13.7253 2.19199 13.8503 2.95866L14.0336 4.04199C14.092 4.38366 13.8586 4.70866 13.5253 4.75866C13.1836 4.81699 12.8586 4.58366 12.8086 4.25033L12.6253 3.16699C12.5086 2.44199 12.4836 2.30033 11.6003 2.30033H9.41696C8.53363 2.30033 8.51696 2.41699 8.39196 3.15866L8.20029 4.24199C8.15029 4.55033 7.88363 4.76699 7.58363 4.76699C7.55029 4.76699 7.51696 4.76699 7.47529 4.75866Z" fill="#565D6D"/>
<path d="M7.825 18.9586C4.91666 18.9586 4.8 17.3503 4.70833 16.0503L4.16666 7.65864C4.14166 7.31697 4.40833 7.01697 4.75 6.99197C5.1 6.97531 5.39166 7.23364 5.41666 7.57531L5.95833 15.967C6.05 17.2336 6.08333 17.7086 7.825 17.7086H13.175C14.925 17.7086 14.9583 17.2336 15.0417 15.967L15.5833 7.57531C15.6083 7.23364 15.9083 6.97531 16.25 6.99197C16.5917 7.01697 16.8583 7.30864 16.8333 7.65864L16.2917 16.0503C16.2 17.3503 16.0833 18.9586 13.175 18.9586H7.825Z" fill="#565D6D"/>
<path d="M9.1084 14.375C8.76673 14.375 8.4834 14.0917 8.4834 13.75C8.4834 13.4083 8.76673 13.125 9.1084 13.125H11.8834C12.2251 13.125 12.5084 13.4083 12.5084 13.75C12.5084 14.0917 12.2251 14.375 11.8834 14.375H9.1084Z" fill="#565D6D"/>
<path d="M8.41699 11.042C8.07533 11.042 7.79199 10.7587 7.79199 10.417C7.79199 10.0753 8.07533 9.79199 8.41699 9.79199H12.5837C12.9253 9.79199 13.2087 10.0753 13.2087 10.417C13.2087 10.7587 12.9253 11.042 12.5837 11.042H8.41699Z" fill="#565D6D"/>
</svg>
